<?xml version="1.0" encoding="UTF-8" standalone="no"?>
<!-- Created with Inkscape (http://www.inkscape.org/) -->

<svg
   width="115.19165mm"
   height="17.28791mm"
   viewBox="0 0 115.19165 17.28791"
   version="1.1"
   id="svg1658"
   inkscape:version="1.2.2 (732a01da63, 2022-12-09)"
   sodipodi:docname="ciencetopia.svg"
   xmlns:inkscape="http://www.inkscape.org/namespaces/inkscape"
   xmlns:sodipodi="http://sodipodi.sourceforge.net/DTD/sodipodi-0.dtd"
   xmlns="http://www.w3.org/2000/svg"
   xmlns:svg="http://www.w3.org/2000/svg">
  <sodipodi:namedview
     id="namedview1660"
     pagecolor="#ffffff"
     bordercolor="#000000"
     borderopacity="0.25"
     inkscape:showpageshadow="2"
     inkscape:pageopacity="0.0"
     inkscape:pagecheckerboard="0"
     inkscape:deskcolor="#d1d1d1"
     inkscape:document-units="mm"
     showgrid="false"
     inkscape:zoom="0.914906"
     inkscape:cx="385.28548"
     inkscape:cy="288.00773"
     inkscape:window-width="1280"
     inkscape:window-height="1411"
     inkscape:window-x="1271"
     inkscape:window-y="-9"
     inkscape:window-maximized="0"
     inkscape:current-layer="layer1" />
  <defs
     id="defs1655" />
  <g
     inkscape:label="图层 1"
     inkscape:groupmode="layer"
     id="layer1"
     transform="translate(-3.1344624,-72.618886)">
    <g
       id="g5940"
       inkscape:label="ciencetopia"
       transform="matrix(0.03527778,0,0,-0.03527778,-22.331685,748.14604)"
       style="display:inline">
      <path
         d="m 930.895,18778.8 c 20.039,7.2 35.96,17.5 47.769,30.8 l -44.871,36.3 c -8.75,-9 -19.129,-16 -31.129,-20.9 -12,-5 -24.621,-7.5 -37.84,-7.5 -24.011,0 -42.629,5.8 -55.851,17.2 -13.239,11.4 -19.84,27.6 -19.84,48.6 v 43.8 c 0,20.4 6.601,36.3 19.84,47.5 13.222,11.3 31.84,16.9 55.851,16.9 13.219,0 25.84,-2.3 37.84,-6.9 12,-4.6 22.379,-11.2 31.129,-19.7 l 44.871,33.8 c -11.809,13.6 -27.68,24.1 -47.609,31.5 -19.95,7.3 -42.332,11 -67.153,11 -43.539,0 -77.269,-10 -101.168,-29.8 -23.921,-19.9 -35.859,-48 -35.859,-84.3 v -43.8 c 0,-36.7 11.938,-65.1 35.859,-85.2 23.899,-20.1 57.629,-30.2 101.168,-30.2 24.621,0 46.953,3.6 66.993,10.9 z"
         style="fill:none;stroke:#000000;stroke-width:10;stroke-linecap:butt;stroke-linejoin:miter;stroke-miterlimit:4;stroke-dasharray:none;stroke-opacity:1"
         id="path328" />
      <path
         d="m 1109.59,19143.8 h -62.2617 v -52.199 h 62.2617 z m 0,-106.5 h -62.2617 v -265.582 h 62.2617 z"
         style="fill:none;stroke:#000000;stroke-width:10;stroke-linecap:butt;stroke-linejoin:miter;stroke-miterlimit:4;stroke-dasharray:none;stroke-opacity:1"
         id="path330" />
      <path
         d="m 1392.82,18778.3 c 19.53,6.9 37.13,16.6 52.8,29.3 l -40.9,34.3 c -9.76,-7.7 -20.86,-13.7 -33.26,-18 -12.41,-4.2 -24.93,-6.3 -37.54,-6.3 -25.24,0 -44.82,5.8 -58.76,17.6 -13.93,11.8 -20.9,28.7 -20.9,50.7 v 33.7 c 0,23.7 6.51,42.1 19.53,55 13.02,13 31.23,19.5 54.63,19.5 19.33,0 34.74,-6.1 46.24,-18.2 11.49,-12.1 18.16,-28.9 19.99,-50.4 h -154.43 v -41.9 h 213.64 v 17.4 c 0,44.3 -10.94,78.8 -32.81,103.3 -21.87,24.6 -52.75,36.9 -92.63,36.9 -42.32,0 -75.13,-10.9 -98.42,-32.5 -23.3,-21.7 -34.95,-52.3 -34.95,-91.9 v -29.9 c 0,-38 12.1,-67.4 36.32,-88 24.21,-20.7 58.39,-31 102.55,-31 19.73,0 39.37,3.5 58.9,10.4 z"
         style="fill:none;stroke:#000000;stroke-width:10;stroke-linecap:butt;stroke-linejoin:miter;stroke-miterlimit:4;stroke-dasharray:none;stroke-opacity:1"
         id="path332" />
      <path
         d="m 1601.58,19037.3 h -62.2617 v -265.582 h 62.2617 z m 192.27,-265.5 v 161.1 c 0,34.5 -9.41,61.2 -28.23,80 -18.82,18.8 -45.42,28.3 -79.81,28.3 -19.13,0 -36.57,-4.4 -52.34,-13.1 -15.77,-8.7 -28.54,-21 -38.3,-37.1 l 6.41,-51.1 c 0,16.3 5.54,29 16.63,38.1 11.09,9 26.8,13.5 47.16,13.5 21.15,0 37.48,-5.1 48.98,-15.3 11.49,-10.3 17.24,-24.8 17.24,-43.5 v -160.9 z"
         style="fill:none;stroke:#000000;stroke-width:10;stroke-linecap:butt;stroke-linejoin:miter;stroke-miterlimit:4;stroke-dasharray:none;stroke-opacity:1"
         id="path334" />
      <path
         d="m 2083.34,18778.8 c 20.04,7.2 35.96,17.5 47.77,30.8 l -44.88,36.3 c -8.75,-9 -19.12,-16 -31.12,-20.9 -12,-5 -24.63,-7.5 -37.84,-7.5 -24.02,0 -42.63,5.8 -55.86,17.2 -13.23,11.4 -19.84,27.6 -19.84,48.6 v 43.8 c 0,20.4 6.61,36.3 19.84,47.5 13.23,11.3 31.84,16.9 55.86,16.9 13.21,0 25.84,-2.3 37.84,-6.9 12,-4.6 22.37,-11.2 31.12,-19.7 l 44.88,33.8 c -11.81,13.6 -27.68,24.1 -47.61,31.5 -19.95,7.3 -42.34,11 -67.16,11 -43.54,0 -77.27,-10 -101.16,-29.8 -23.93,-19.9 -35.86,-48 -35.86,-84.3 v -43.8 c 0,-36.7 11.93,-65.1 35.86,-85.2 23.89,-20.1 57.62,-30.2 101.16,-30.2 24.62,0 46.96,3.6 67,10.9 z"
         style="fill:none;stroke:#000000;stroke-width:10;stroke-linecap:butt;stroke-linejoin:miter;stroke-miterlimit:4;stroke-dasharray:none;stroke-opacity:1"
         id="path336" />
      <path
         d="m 2388.38,18778.3 c 19.53,6.9 37.14,16.6 52.8,29.3 l -40.89,34.3 c -9.77,-7.7 -20.86,-13.7 -33.27,-18 -12.41,-4.2 -24.93,-6.3 -37.54,-6.3 -25.23,0 -44.82,5.8 -58.76,17.6 -13.93,11.8 -20.9,28.7 -20.9,50.7 v 33.7 c 0,23.7 6.52,42.1 19.54,55 13.02,13 31.23,19.5 54.62,19.5 19.33,0 34.74,-6.1 46.24,-18.2 11.49,-12.1 18.16,-28.9 19.99,-50.4 h -154.42 v -41.9 h 213.64 v 17.4 c 0,44.3 -10.95,78.8 -32.82,103.3 -21.86,24.6 -52.75,36.9 -92.63,36.9 -42.32,0 -75.12,-10.9 -98.42,-32.5 -23.29,-21.7 -34.95,-52.3 -34.95,-91.9 v -29.9 c 0,-38 12.1,-67.4 36.32,-88 24.21,-20.7 58.39,-31 102.55,-31 19.73,0 39.38,3.5 58.9,10.4 z"
         style="fill:none;stroke:#000000;stroke-width:10;stroke-linecap:butt;stroke-linejoin:miter;stroke-miterlimit:4;stroke-dasharray:none;stroke-opacity:1"
         id="path338" />
      <path
         d="m 2821.16,18770.5 v 49.6 h -29.91 c -5.91,0 -10.38,1.8 -13.43,5.4 -3.05,3.6 -4.58,8.5 -4.58,14.8 v 274.3 h -62.26 v -273.8 c 0,-22.7 5.85,-40.1 17.55,-52.2 11.7,-12.1 30.57,-18.1 56.61,-18.1 z m 0,266.8 h -142.844 v -47.078 h 142.844 z"
         style="fill:none;stroke:#000000;stroke-width:10;stroke-linecap:butt;stroke-linejoin:miter;stroke-miterlimit:4;stroke-dasharray:none;stroke-opacity:1"
         id="path340" />
      <path
         d="m 3124.53,18798 c 22.78,20 34.18,48.3 34.18,84.8 v 44 c 0,36.3 -11.4,64.5 -34.18,84.4 -22.79,20 -54.94,30 -96.45,30 -41.5,0 -73.65,-10 -96.44,-30 -22.79,-19.9 -34.18,-48.1 -34.18,-84.4 v -43.2 c 0,-36.7 11.39,-65.2 34.18,-85.4 22.79,-20.2 54.94,-30.3 96.44,-30.3 41.51,0 73.66,10 96.45,30.1 z m -146.8,36.7 c -12.01,11.4 -18.01,27.4 -18.01,48.1 v 44 c 0,20.6 6,36.6 18.01,47.8 12,11.3 28.79,16.9 50.35,16.9 21.77,0 38.61,-5.6 50.52,-16.9 11.9,-11.2 17.85,-27.2 17.85,-47.8 v -44 c 0,-20.7 -5.95,-36.7 -17.85,-48.1 -11.91,-11.4 -28.75,-17.1 -50.52,-17.1 -21.56,0 -38.35,5.7 -50.35,17.1 z"
         style="fill:none;stroke:#000000;stroke-width:10;stroke-linecap:butt;stroke-linejoin:miter;stroke-miterlimit:4;stroke-dasharray:none;stroke-opacity:1"
         id="path342" />
      <path
         d="m 3309.48,19037.3 h -62.2617 v -373.551 h 62.2617 z m 160.54,-241.2 c 19.12,18.7 28.69,45.1 28.69,79 v 57.8 c 0,34.5 -9.26,61.2 -27.78,80 -18.51,18.8 -44.76,28.3 -78.74,28.3 -18.92,0 -36.12,-4.3 -51.58,-12.7 -15.46,-8.4 -27.98,-20.4 -37.54,-35.9 l 6.41,-51.2 c 0,11.2 2.44,20.8 7.33,28.6 4.88,7.9 11.95,13.9 21.21,18 9.26,4 20.5,6.1 33.72,6.1 20.55,0 36.47,-5.4 47.77,-16.1 11.29,-10.8 16.94,-25.9 16.94,-45.3 v -57.6 c 0,-19.1 -5.65,-33.9 -16.94,-44.4 -11.3,-10.5 -27.22,-15.7 -47.77,-15.7 -13.22,0 -24.46,2.1 -33.72,6.4 -9.26,4.2 -16.33,10.4 -21.21,18.4 -4.89,8 -7.33,17.7 -7.33,29.2 l -4.27,-55.6 c 6.91,-14.4 17.7,-25.7 32.35,-33.6 14.65,-7.9 31.84,-11.9 51.58,-11.9 34.79,0 61.75,9.4 80.88,28.2 z"
         style="fill:none;stroke:#000000;stroke-width:10;stroke-linecap:butt;stroke-linejoin:miter;stroke-miterlimit:4;stroke-dasharray:none;stroke-opacity:1"
         id="path344" />
      <path
         d="m 3649.48,19143.8 h -62.2617 v -52.199 h 62.2617 z m 0,-106.5 h -62.2617 v -265.582 h 62.2617 z"
         style="fill:none;stroke:#000000;stroke-width:10;stroke-linecap:butt;stroke-linejoin:miter;stroke-miterlimit:4;stroke-dasharray:none;stroke-opacity:1"
         id="path346" />
      <path
         d="m 3982.15,18771.8 v 170.6 c 0,31.4 -10.89,55.7 -32.66,72.9 -21.77,17.3 -52.49,25.9 -92.17,25.9 -24.01,0 -45.83,-3.4 -65.46,-10.1 -19.64,-6.8 -35.46,-16.2 -47.46,-28.3 l 45.47,-26.1 c 9.57,6 20.4,10.5 32.5,13.7 12.11,3.1 24.37,4.7 36.78,4.7 20.35,0 36.07,-4.8 47.16,-14.4 11.08,-9.7 16.63,-23.2 16.63,-40.6 v -168.3 z m -101.18,-0.4 c 10.48,2.3 19.79,5.7 27.93,10.3 8.14,4.6 14.95,10.5 20.45,17.7 l -6.41,37.3 c 0,-9 -5.9,-15.7 -17.7,-19.9 -11.81,-4.3 -29.51,-6.4 -53.1,-6.4 -21.58,0 -37.75,3.2 -48.53,9.7 -10.79,6.5 -16.18,16.5 -16.18,29.9 0,12.5 4.07,21.8 12.21,27.8 8.14,6 20.24,9.1 36.32,9.1 h 94 l -4.27,41.9 h -90.04 c -35.6,0 -62.31,-6.5 -80.11,-19.5 -17.81,-13.1 -26.71,-32.8 -26.71,-59.3 0,-27.8 9.72,-48.4 29.15,-61.9 19.43,-13.5 48.57,-20.2 87.44,-20.2 13.22,0 25.07,1.2 35.55,3.5 z"
         style="fill:none;stroke:#000000;stroke-width:10;stroke-linecap:butt;stroke-linejoin:miter;stroke-miterlimit:4;stroke-dasharray:none;stroke-opacity:1"
         id="path348" />
    </g>
  </g>
</svg>
