<?xml version="1.0" encoding="UTF-8" standalone="yes"?><!-- Created with Inkscape (http://www.inkscape.org/) --><svg xmlns:inkscape="http://www.inkscape.org/namespaces/inkscape" xmlns:sodipodi="http://sodipodi.sourceforge.net/DTD/sodipodi-0.dtd" xmlns="http://www.w3.org/2000/svg" xmlns:svg="http://www.w3.org/2000/svg" width="265.75208mm" height="206.25882mm" viewBox="0 0 265.75208 206.25882" version="1.1" id="svg916" inkscape:version="1.2.2 (732a01da63, 2022-12-09)" sodipodi:docname="recommendation_main.svg" style="zoom: 1;"><sodipodi:namedview id="namedview918" pagecolor="#ffffff" bordercolor="#000000" borderopacity="0.25" inkscape:showpageshadow="2" inkscape:pageopacity="0.0" inkscape:pagecheckerboard="0" inkscape:deskcolor="#d1d1d1" inkscape:document-units="mm" showgrid="false" inkscape:zoom="0.914906" inkscape:cx="468.35412" inkscape:cy="544.86472" inkscape:window-width="1280" inkscape:window-height="1411" inkscape:window-x="1271" inkscape:window-y="-9" inkscape:window-maximized="0" inkscape:current-layer="layer18"></sodipodi:namedview><defs id="defs913"><linearGradient x1="0" y1="0" x2="1" y2="0" gradientUnits="userSpaceOnUse" gradientTransform="matrix(2752.78,-2904.79,-2821.14,-2673.51,4895.02,9477.48)" spreadMethod="pad" id="linearGradient444"><stop style="stop-opacity:1;stop-color:#ff0000" offset="0" id="stop438"></stop><stop style="stop-opacity:1;stop-color:#231815" offset="0.713222" id="stop440"></stop><stop style="stop-opacity:1;stop-color:#231815" offset="1" id="stop442"></stop></linearGradient><clipPath clipPathUnits="userSpaceOnUse" id="clipPath460"><path d="m 2776.11,6228.54 525.69,-568.6 2842.54,2761.19 -525.69,568.6 z" id="path458"></path></clipPath><linearGradient x1="0" y1="0" x2="1" y2="0" gradientUnits="userSpaceOnUse" gradientTransform="matrix(-2883.13,-2732.25,-2187.94,2308.76,5901.79,8690.96)" spreadMethod="pad" id="linearGradient468"><stop style="stop-opacity:1;stop-color:#ff0000" offset="0" id="stop462"></stop><stop style="stop-opacity:1;stop-color:#231815" offset="0.713222" id="stop464"></stop><stop style="stop-opacity:1;stop-color:#231815" offset="1" id="stop466"></stop></linearGradient><linearGradient x1="0" y1="0" x2="1" y2="0" gradientUnits="userSpaceOnUse" gradientTransform="matrix(2793.69,0,0,2793.69,1566.87,-6017.53)" spreadMethod="pad" id="linearGradient528"><stop style="stop-opacity:1;stop-color:#ff0000" offset="0" id="stop522"></stop><stop style="stop-opacity:1;stop-color:#231815" offset="0.713222" id="stop524"></stop><stop style="stop-opacity:1;stop-color:#231815" offset="1" id="stop526"></stop></linearGradient><linearGradient x1="0" y1="0" x2="1" y2="0" gradientUnits="userSpaceOnUse" gradientTransform="matrix(-1922.06,-2079.56,2079.56,-1922.06,8139.62,-3393.28)" spreadMethod="pad" id="linearGradient538"><stop style="stop-opacity:1;stop-color:#ff0000" offset="0" id="stop532"></stop><stop style="stop-opacity:1;stop-color:#231815" offset="0.713222" id="stop534"></stop><stop style="stop-opacity:1;stop-color:#231815" offset="1" id="stop536"></stop></linearGradient><linearGradient x1="0" y1="0" x2="1" y2="0" gradientUnits="userSpaceOnUse" gradientTransform="matrix(2472.19,0,0,2472.19,3138.87,-7911.75)" spreadMethod="pad" id="linearGradient548"><stop style="stop-opacity:1;stop-color:#ff0000" offset="0" id="stop542"></stop><stop style="stop-opacity:1;stop-color:#231815" offset="0.713222" id="stop544"></stop><stop style="stop-opacity:1;stop-color:#231815" offset="1" id="stop546"></stop></linearGradient><linearGradient x1="0" y1="0" x2="1" y2="0" gradientUnits="userSpaceOnUse" gradientTransform="matrix(30,0,0,30,7010.6,-7964.71)" spreadMethod="pad" id="linearGradient558"><stop style="stop-opacity:1;stop-color:#ff0000" offset="0" id="stop552"></stop><stop style="stop-opacity:1;stop-color:#231815" offset="0.713222" id="stop554"></stop><stop style="stop-opacity:1;stop-color:#231815" offset="1" id="stop556"></stop></linearGradient><linearGradient x1="0" y1="0" x2="1" y2="0" gradientUnits="userSpaceOnUse" gradientTransform="matrix(2145.94,0,0,2145.94,6413.61,-6706.02)" spreadMethod="pad" id="linearGradient568"><stop style="stop-opacity:1;stop-color:#ff0000" offset="0" id="stop562"></stop><stop style="stop-opacity:1;stop-color:#231815" offset="0.713222" id="stop564"></stop><stop style="stop-opacity:1;stop-color:#231815" offset="1" id="stop566"></stop></linearGradient><linearGradient x1="0" y1="0" x2="1" y2="0" gradientUnits="userSpaceOnUse" gradientTransform="matrix(1591.19,0,0,1591.19,4197.33,-8137.8)" spreadMethod="pad" id="linearGradient578"><stop style="stop-opacity:1;stop-color:#ff0000" offset="0" id="stop572"></stop><stop style="stop-opacity:1;stop-color:#231815" offset="0.713222" id="stop574"></stop><stop style="stop-opacity:1;stop-color:#231815" offset="1" id="stop576"></stop></linearGradient><linearGradient x1="0" y1="0" x2="1" y2="0" gradientUnits="userSpaceOnUse" gradientTransform="matrix(2485.08,0,0,2485.08,1673.99,-6343.49)" spreadMethod="pad" id="linearGradient588"><stop style="stop-opacity:1;stop-color:#ff0000" offset="0" id="stop582"></stop><stop style="stop-opacity:1;stop-color:#231815" offset="0.713222" id="stop584"></stop><stop style="stop-opacity:1;stop-color:#231815" offset="1" id="stop586"></stop></linearGradient><linearGradient x1="0" y1="0" x2="1" y2="0" gradientUnits="userSpaceOnUse" gradientTransform="matrix(934.612,0,0,934.612,2731.37,-3650.97)" spreadMethod="pad" id="linearGradient598"><stop style="stop-opacity:1;stop-color:#ff0000" offset="0" id="stop592"></stop><stop style="stop-opacity:1;stop-color:#231815" offset="0.713222" id="stop594"></stop><stop style="stop-opacity:1;stop-color:#231815" offset="1" id="stop596"></stop></linearGradient><linearGradient x1="0" y1="0" x2="1" y2="0" gradientUnits="userSpaceOnUse" gradientTransform="matrix(4299.82,0,0,4299.82,4800.18,-4058.31)" spreadMethod="pad" id="linearGradient612"><stop style="stop-opacity:1;stop-color:#ff0000" offset="0" id="stop606"></stop><stop style="stop-opacity:1;stop-color:#231815" offset="0.713222" id="stop608"></stop><stop style="stop-opacity:1;stop-color:#231815" offset="1" id="stop610"></stop></linearGradient><linearGradient x1="0" y1="0" x2="1" y2="0" gradientUnits="userSpaceOnUse" gradientTransform="matrix(30,0,0,30,8163.04,-6090.94)" spreadMethod="pad" id="linearGradient622"><stop style="stop-opacity:1;stop-color:#ff0000" offset="0" id="stop616"></stop><stop style="stop-opacity:1;stop-color:#231815" offset="0.713222" id="stop618"></stop><stop style="stop-opacity:1;stop-color:#231815" offset="1" id="stop620"></stop></linearGradient></defs><g inkscape:label="图层 1" inkscape:groupmode="layer" id="layer1" transform="translate(18.93446,-4.7391381)"><g inkscape:groupmode="layer" id="layer18" inkscape:label="recommendation main" style="display:inline" transform="matrix(0.26458333,0,0,0.26458333,-74.21015,-285.92532)"><g id="g430" transform="matrix(0.13333333,0,0,-0.13333333,0,2559.9999)" style="display:inline" inkscape:label="main shape layer 3"><path d="m 6997.1,9252.44 -2729.85,-8.66 -1.81,599.68 2729.85,8.66 z" style="display:inline;fill:#60cc9b;fill-opacity:1;fill-rule:nonzero;stroke:none" id="path14" transform="translate(0,-2.3800002e-4)"></path><path d="M 4578.6,9161.57 7287.64,6231.38 7964.23,6888.6 5255.18,9818.79 Z" style="display:inline;fill:url(#linearGradient444);fill-opacity:1;fill-rule:nonzero;stroke:none" id="path446" transform="translate(0,-2.3800002e-4)"></path></g><g inkscape:groupmode="layer" id="layer19" inkscape:label="main shape layer 2" style="display:inline"><g inkscape:groupmode="layer" id="layer20" inkscape:label="main shape layer 2 orange bars"><path d="m 2268.81,5976.41 h 4190.14 v 599.68 H 2268.81 Z" style="fill:#ff9100;fill-opacity:1;fill-rule:nonzero;stroke:none" id="path448" transform="matrix(0.13333333,0,0,-0.13333333,0,2559.9999)"></path><path d="M 2909.8,8010.4 3405.23,8479.77 5211.84,6476.21 4716.4,6006.84 Z" style="fill:#f2b368;fill-opacity:1;fill-rule:nonzero;stroke:none" id="path450" transform="matrix(0.13333333,0,0,-0.13333333,0,2559.9999)"></path><path d="m 2859.04,7937.53 h 4063.32 v 691.52 H 2859.04 Z" style="fill:#f96b3a;fill-opacity:1;fill-rule:nonzero;stroke:none" id="path452" transform="matrix(0.13333333,0,0,-0.13333333,0,2559.9999)"></path></g><g id="g456" clip-path="url(#clipPath460)" style="display:inline" transform="matrix(0.13333333,0,0,-0.13333333,0,2559.9999)" inkscape:label="main shape layer 2 red bar"><path d="m 2776.11,6228.54 525.69,-568.6 2842.54,2761.19 -525.69,568.6 z" style="fill:url(#linearGradient468);fill-opacity:1;fill-rule:nonzero;stroke:none" id="path470"></path></g></g><g inkscape:groupmode="layer" id="layer17" inkscape:label="main shape layer 1" style="display:inline"><path d="M 6190.25,7250.82 5384.36,6487.32 3363.11,8728.93 4169,9492.43 Z" style="fill:#1f285b;fill-opacity:1;fill-rule:nonzero;stroke:none" id="path472" transform="matrix(0.13333333,0,0,-0.13333333,0,2559.9999)"></path><path d="m 4746,8751.96 c 0,-151.42 -119.76,-274.18 -267.48,-274.18 -147.73,0 -267.49,122.76 -267.49,274.18 0,151.42 119.76,274.18 267.49,274.18 147.72,0 267.48,-122.76 267.48,-274.18 z" style="fill:none;stroke:#ff9100;stroke-width:80;stroke-linecap:butt;stroke-linejoin:miter;stroke-miterlimit:10;stroke-dasharray:none;stroke-opacity:1" id="path474" transform="matrix(0.13333333,0,0,-0.13333333,0,2559.9999)"></path><path d="m 4334.48,8983.28 -52.29,-45.38 -68.11,82.47 52.29,45.38 z" style="fill:#ff9100;fill-opacity:1;fill-rule:nonzero;stroke:none" id="path476" transform="matrix(0.13333333,0,0,-0.13333333,0,2559.9999)"></path><path d="m 4429.47,9027.31 -64.65,-23.26 -34.91,101.95 64.65,23.26 z" style="fill:#ff9100;fill-opacity:1;fill-rule:nonzero;stroke:none" id="path478" transform="matrix(0.13333333,0,0,-0.13333333,0,2559.9999)"></path><path d="m 4530.18,9025.83 -68.23,6.46 9.71,107.6 68.22,-6.47 z" style="fill:#ff9100;fill-opacity:1;fill-rule:nonzero;stroke:none" id="path480" transform="matrix(0.13333333,0,0,-0.13333333,0,2559.9999)"></path><path d="m 4252.45,8900.67 -30.98,-62.64 -94.02,48.85 30.98,62.64 z" style="fill:#ff9100;fill-opacity:1;fill-rule:nonzero;stroke:none" id="path482" transform="matrix(0.13333333,0,0,-0.13333333,0,2559.9999)"></path><path d="m 4099.41,8677.14 h 105.41 v 111.301 h -105.41 z" style="fill:#ff9100;fill-opacity:1;fill-rule:nonzero;stroke:none" id="path484" transform="matrix(0.13333333,0,0,-0.13333333,0,2559.9999)"></path><path d="m 4210.83,8658.22 22.97,-32.91 -129.19,-94.72 -22.97,32.91 z" style="fill:#ff9100;fill-opacity:1;fill-rule:nonzero;stroke:none" id="path486" transform="matrix(0.13333333,0,0,-0.13333333,0,2559.9999)"></path><path d="m 4284.25,8574.43 43.48,-44.57 -112.32,-115.12 -43.47,44.56 z" style="fill:#ff9100;fill-opacity:1;fill-rule:nonzero;stroke:none" id="path488" transform="matrix(0.13333333,0,0,-0.13333333,0,2559.9999)"></path><path d="m 4364.59,8490.86 58.87,-18.2 -23.98,-81.49 -58.87,18.2 z" style="fill:#ff9100;fill-opacity:1;fill-rule:nonzero;stroke:none" id="path490" transform="matrix(0.13333333,0,0,-0.13333333,0,2559.9999)"></path><path d="m 4468.34,8480.04 61.15,6.6 8.7,-84.64 -61.15,-6.61 z" style="fill:#ff9100;fill-opacity:1;fill-rule:nonzero;stroke:none" id="path492" transform="matrix(0.13333333,0,0,-0.13333333,0,2559.9999)"></path><path d="m 4571.83,8494.53 91.48,54.14 41.52,-73.72 -91.48,-54.13 z" style="fill:#ff9100;fill-opacity:1;fill-rule:nonzero;stroke:none" id="path494" transform="matrix(0.13333333,0,0,-0.13333333,0,2559.9999)"></path><path d="m 4749.48,8758.5 -5.14,50.02 88.45,9.55 5.14,-50.02 z" style="fill:#ff9100;fill-opacity:1;fill-rule:nonzero;stroke:none" id="path496" transform="matrix(0.13333333,0,0,-0.13333333,0,2559.9999)"></path><path d="m 4725.13,8650.67 16.86,47.23 83.52,-31.32 -16.86,-47.23 z" style="fill:#ff9100;fill-opacity:1;fill-rule:nonzero;stroke:none" id="path498" transform="matrix(0.13333333,0,0,-0.13333333,0,2559.9999)"></path><path d="m 4732.31,8867.11 -17.88,46.84 82.82,33.22 17.88,-46.84 z" style="fill:#ff9100;fill-opacity:1;fill-rule:nonzero;stroke:none" id="path500" transform="matrix(0.13333333,0,0,-0.13333333,0,2559.9999)"></path><path d="m 4662.01,8963.36 -63.77,44.52 89.67,134.96 63.77,-44.52 z" style="fill:#ff9100;fill-opacity:1;fill-rule:nonzero;stroke:none" id="path502" transform="matrix(0.13333333,0,0,-0.13333333,0,2559.9999)"></path></g><g inkscape:groupmode="layer" id="layer16" inkscape:label="news title text" style="display:inline"><g id="g504" transform="matrix(1.3333333,0,0,-1.3333333,0,2559.9999)" inkscape:label="science"><text xml:space="preserve" transform="matrix(0.52029567,-0.62996776,-0.85398619,-0.7410532,370.526,853.865)" style="font-variant:normal;font-weight:normal;font-size:83.3787px;font-family:SimHei;-inkscape-font-specification:SimHei;writing-mode:lr-tb;fill:#000000;fill-opacity:1;fill-rule:nonzero;stroke:none" id="text508"><tspan x="0 41.689354 83.378708 125.06806 166.75742 208.44678 250.13612" y="0" sodipodi:role="line" id="tspan506">science</tspan></text></g><g id="g510" transform="matrix(1.3333333,0,0,-1.3333333,0,2559.9999)" inkscape:label="topia"><text xml:space="preserve" transform="matrix(1,0,0,-0.69124743,347.578,606.78)" style="font-variant:normal;font-weight:normal;font-size:94.6599px;font-family:SimHei;-inkscape-font-specification:SimHei;writing-mode:lr-tb;fill:#ffffff;fill-opacity:1;fill-rule:nonzero;stroke:none" id="text514"><tspan x="0 47.329941 94.659882 141.98982 189.31976" y="0" sodipodi:role="line" id="tspan512">topia</tspan></text></g><g id="g516" transform="matrix(1.3333333,0,0,-1.3333333,0,2559.9999)" inkscape:label="news"><text xml:space="preserve" transform="matrix(0.59245913,-0.71734157,-0.80289873,-0.69672166,626.904,770.801)" style="font-variant:normal;font-weight:normal;font-size:82.5114px;font-family:SimHei;-inkscape-font-specification:SimHei;writing-mode:lr-tb;fill:#8e8e8e;fill-opacity:1;fill-rule:nonzero;stroke:none" id="text520"><tspan x="0 41.25568 82.51136 123.76704" y="0" sodipodi:role="line" id="tspan518">news</tspan></text></g></g><g inkscape:groupmode="layer" id="layer14" inkscape:label="information" style="display:inline"><g id="g626" transform="matrix(1.3333333,0,0,-1.3333333,0,2559.9999)" inkscape:label="information text"><text xml:space="preserve" transform="matrix(0,-0.89344,-1,0,709.014,1048.83)" style="font-variant:normal;font-weight:normal;font-size:17.1565px;font-family:SimHei;-inkscape-font-specification:SimHei;writing-mode:lr-tb;fill:#000000;fill-opacity:1;fill-rule:nonzero;stroke:none" id="text646"></text><text xml:space="preserve" transform="matrix(0.64102352,0.65706404,0.73542993,-0.75383476,183.877,693.582)" style="font-variant:normal;font-weight:normal;font-size:16.4957px;font-family:SimHei;-inkscape-font-specification:SimHei;writing-mode:lr-tb;fill:#000000;fill-opacity:1;fill-rule:nonzero;stroke:none" id="text654"></text></g></g></g></g></svg>