<?xml version="1.0" encoding="UTF-8"?>
<svg id="_图层_2" data-name="图层 2" xmlns="http://www.w3.org/2000/svg" viewBox="0 0 98 139.83">
  <defs>
    <style>
      .cls-1 {
        font-size: 8.77px;
      }

      .cls-1, .cls-2 {
        font-family: FangSong, FangSong;
      }

      .cls-1, .cls-2, .cls-3 {
        fill: #231815;
      }

      .cls-4 {
        fill: #040000;
      }

      .cls-4, .cls-5, .cls-6 {
        stroke-width: 0px;
      }

      .cls-2 {
        font-size: 6.39px;
      }

      .cls-3 {
        font-family: SimHei, SimHei;
        font-size: 14.95px;
      }

      .cls-5 {
        fill: #fff;
      }

      .cls-6 {
        fill: #d3d6ec;
        opacity: .9;
      }

      .cls-7 {
        stroke: #1b2c73;
      }

      .cls-7, .cls-8, .cls-9 {
        stroke-miterlimit: 10;
      }

      .cls-7, .cls-9 {
        fill: #e03d64;
      }

      .cls-8 {
        fill: none;
      }

      .cls-8, .cls-9 {
        stroke: #6fc6ce;
      }

      .cls-9 {
        stroke-width: 2px;
      }
    </style>
  </defs>
  <g id="_图层_1-2" data-name="图层 1">
    <rect class="cls-6" x="0" y="0" width="98" height="22.52"/>
    <text class="cls-1" transform="translate(52.15 51.74)"><tspan x="0" y="0">左键未点击</tspan><tspan x="0" y="10.52">状态</tspan></text>
    <text class="cls-1" transform="translate(52.15 120.72)"><tspan x="0" y="0">左键点击</tspan><tspan x="0" y="10.52">选中状态</tspan></text>
    <text class="cls-2" transform="translate(50.76 89.55)"><tspan x="0" y="0">出现蓝色外圈</tspan></text>
    <text class="cls-3" transform="translate(4.19 16.6)"><tspan x="0" y="0">左键选中节点</tspan></text>
    <circle class="cls-7" cx="25.79" cy="54.44" r="13.01"/>
    <circle class="cls-9" cx="24.63" cy="116.72" r="13.94"/>
    <polygon class="cls-5" points="42.39 57.1 42.4 69.17 45.44 66.58 47.55 71.12 48.44 70.72 46.43 66.19 50.76 66.25 42.39 57.1"/>
    <g>
      <polygon class="cls-5" points="31.6 123.72 31.61 136.62 34.85 133.85 37.1 138.7 38.06 138.27 35.92 133.43 40.53 133.5 31.6 123.72"/>
      <rect class="cls-4" x="26.45" y="123.75" width=".58" height="3.35" transform="translate(-83.36 191.19) rotate(-108.81)"/>
      <rect class="cls-4" x="26.88" y="120.89" width=".58" height="3.35" transform="translate(-98.07 131.16) rotate(-81.43)"/>
      <rect class="cls-4" x="28.46" y="118.18" width=".58" height="3.35" transform="translate(-66.32 41.41) rotate(-36.99)"/>
      <rect class="cls-4" x="35.93" y="120.95" width=".58" height="3.35" transform="translate(-77.14 181.77) rotate(-101.1)"/>
      <rect class="cls-4" x="34.13" y="118.68" width=".58" height="3.35" transform="translate(-38.38 222.2) rotate(-128.49)"/>
      <rect class="cls-4" x="31.41" y="117.12" width=".58" height="3.35" transform="translate(48.54 240.59) rotate(-172.93)"/>
    </g>
    <line class="cls-4" x1="36.38" y1="108.56" x2="64.79" y2="94.61"/>
    <circle class="cls-8" cx="70.83" cy="100.41" r="8.15"/>
  </g>
</svg>