<?xml version="1.0" encoding="UTF-8"?>
<svg id="_图层_2" data-name="图层 2" xmlns="http://www.w3.org/2000/svg" viewBox="0 0 82.84 136.04">
  <defs>
    <style>
      .cls-1 {
        font-family: FangSong, FangSong;
        font-size: 8.77px;
      }

      .cls-1, .cls-2, .cls-3 {
        fill: #231815;
      }

      .cls-2 {
        font-family: SimHei, SimHei;
        font-size: 15.28px;
      }

      .cls-3, .cls-4, .cls-5, .cls-6 {
        stroke-width: 0px;
      }

      .cls-4 {
        fill: #f7f7f7;
      }

      .cls-5 {
        fill: #040000;
      }

      .cls-7 {
        fill: none;
        stroke: #ddd;
        stroke-width: .5px;
      }

      .cls-7, .cls-8 {
        stroke-miterlimit: 10;
      }

      .cls-8 {
        fill: #fff;
        stroke: #040000;
        stroke-width: .6px;
      }

      .cls-6 {
        fill: #f9d4d4;
        opacity: .9;
      }
    </style>
  </defs>
  <g id="_图层_1-2" data-name="图层 1">
    <rect class="cls-6" x="0" y="0" width="82.84" height="37.51"/>
    <text class="cls-1" transform="translate(7.48 124.08)"><tspan x="0" y="0">右键点击创建节点</tspan><tspan x="0" y="10.52">或者创建边</tspan></text>
    <text class="cls-2" transform="translate(10.04 14.63)"><tspan x="0" y="0">右键空白</tspan><tspan x="0" y="18.33">处选择</tspan></text>
    <polygon class="cls-4" points="79.35 79.92 18.4 79.92 9.72 85.61 11.2 71.53 11.14 50.75 79.49 50.75 79.35 79.92"/>
    <text class="cls-1" transform="translate(35.87 62.13)"><tspan x="0" y="0">创建节点</tspan></text>
    <text class="cls-1" transform="translate(35.22 75.02)"><tspan x="0" y="0">创建边</tspan></text>
    <circle class="cls-3" cx="31.04" cy="59.26" r="1.49"/>
    <circle class="cls-3" cx="31.04" cy="72.3" r="1.49"/>
    <line class="cls-7" x1="11.18" y1="65.73" x2="79.42" y2="65.73"/>
    <g>
      <rect class="cls-5" x="5.38" y="86.34" width=".63" height="3.67" transform="translate(-75.93 122) rotate(-108.81)"/>
      <rect class="cls-5" x="5.85" y="83.2" width=".63" height="3.67" transform="translate(-78.84 78.46) rotate(-81.43)"/>
      <rect class="cls-5" x="7.58" y="80.23" width=".63" height="3.67" transform="translate(-47.79 21.26) rotate(-36.99)"/>
      <rect class="cls-5" x="15.76" y="83.27" width=".63" height="3.67" transform="translate(-64.34 117.27) rotate(-101.1)"/>
      <rect class="cls-5" x="13.79" y="80.78" width=".63" height="3.67" transform="translate(-41.79 145.07) rotate(-128.49)"/>
      <rect class="cls-5" x="10.81" y="79.07" width=".63" height="3.67" transform="translate(12.21 162.57) rotate(-172.93)"/>
      <polygon class="cls-8" points="11.19 99.95 10.14 84.82 21.4 95.01 17.9 96.61 17.52 96.78 20.7 102.74 18.69 103.82 15.49 97.82 13.78 98.65 11.19 99.95"/>
    </g>
  </g>
</svg>